# File created by Blade
# Date/Time:  Wed Jan 21 14:28:11 2015
# Frame Rate: 120.000 fps
#------------------------------------------------------
:FULLY-SPECIFIED
:DEGREES
847
root 18.727228 35.470361 -21.312860 -171.287134 -3.493358 -178.934925
Spine -18.217546 -0.503590 1.166105
Head 7.966143 -2.368730 0.541233
LeftShoulder -11.900447 -36.162652 22.879146
LeftArm 4.719312 7.744625 -6.042825
LeftForeArm 16.241595 -0.000000 -2.082746
LeftHand -8.153564 -0.000000 -8.190998
LeftHandThumb1 -26.253704 0.000000 33.147579
RightShoulder -11.509287 -0.525090 -13.478870
RightArm 9.041723 34.029958 7.530554
RightForeArm -40.455645 -0.000000 4.748559
RightHand -7.450108 0.000000 12.815755
RightHandThumb1 -24.326973 -0.000000 -32.862282
LeftUpLeg -0.331584 8.533080 1.883458
LeftLeg -7.080711 -0.000000 0.000000
LeftFoot -19.680746 27.002203 -11.853789
LeftToeBase 27.578037 -0.000000 -0.000000
RightUpLeg -1.509361 -13.003240 -0.160012
RightLeg -4.076562 -0.000000 0.000000
RightFoot -20.034065 -22.470198 16.158879
RightToeBase 25.417502 -0.000000 -0.000000
848
root 18.728304 35.470601 -21.311180 -171.290519 -3.478355 -178.932222
Spine -18.213806 -0.499088 1.168482
Head 7.951917 -2.299237 0.563065
LeftShoulder -11.891022 -36.137199 22.863878
LeftArm 4.687918 7.749856 -6.052479
LeftForeArm 16.247354 -0.000000 -2.081708
LeftHand -8.158075 -0.000000 -8.176796
LeftHandThumb1 -26.253704 0.000000 33.147579
RightShoulder -11.500191 -0.574856 -13.465234
RightArm 9.041971 34.054100 7.537244
RightForeArm -40.438924 -0.000000 4.727825
RightHand -7.440314 -0.000000 12.736393
RightHandThumb1 -24.326973 -0.000000 -32.862282
LeftUpLeg -0.327011 8.546112 1.883940
LeftLeg -7.083055 -0.000000 0.000000
LeftFoot -19.657465 26.970833 -11.937969
LeftToeBase 27.327361 -0.000000 -0.000000
RightUpLeg -1.511757 -12.990053 -0.157600
RightLeg -4.071462 -0.000000 0.000000
RightFoot -20.028034 -22.449991 16.229488
RightToeBase 25.294568 -0.000000 -0.000000
849
root 18.730487 35.469864 -21.309494 -171.297534 -3.456431 -178.929696
Spine -18.198237 -0.479675 1.158862
Head 7.919185 -2.210825 0.604987
LeftShoulder -11.881297 -36.130507 22.862447
LeftArm 4.654646 7.760821 -6.065377
LeftForeArm 16.259120 -0.000000 -2.081293
LeftHand -8.153403 -0.000000 -8.187294
LeftHandThumb1 -26.253704 0.000000 33.147579
RightShoulder -11.494999 -0.576986 -13.459279
RightArm 9.000012 33.974933 7.527452
RightForeArm -40.400031 -0.000000 4.737343
RightHand -7.423318 0.000000 12.700148
RightHandThumb1 -24.326973 -0.000000 -32.862282
LeftUpLeg -0.316320 8.560395 1.889765
LeftLeg -7.092052 -0.000000 0.000000
LeftFoot -19.678915 27.012828 -11.850999
LeftToeBase 27.610651 -0.000000 -0.000000
RightUpLeg -1.519688 -12.992439 -0.157382
RightLeg -4.053888 -0.000000 0.000000
RightFoot -20.036468 -22.437839 16.125386
RightToeBase 25.443167 -0.000000 -0.000000
850
root 18.730952 35.470097 -21.307645 -171.308415 -3.442592 -178.926890
Spine -18.181939 -0.462410 1.167805
Head 7.899450 -2.143153 0.599315
LeftShoulder -11.856061 -36.105825 22.816708
LeftArm 4.630849 7.752188 -6.056867
LeftForeArm 16.277953 -0.000000 -2.083926
LeftHand -8.128878 -0.000000 -8.224868
LeftHandThumb1 -26.253704 0.000000 33.147579
RightShoulder -11.490319 -0.613042 -13.466351
RightArm 8.994214 33.996671 7.541638
RightForeArm -40.441730 -0.000000 4.686359
RightHand -7.460235 -0.000000 12.621520
RightHandThumb1 -24.326973 -0.000000 -32.862282
LeftUpLeg -0.304673 8.556500 1.893612
LeftLeg -7.094881 -0.000000 0.000000
LeftFoot -19.676059 27.034155 -11.841513
LeftToeBase 27.628789 -0.000000 -0.000000
RightUpLeg -1.512271 -12.986517 -0.155478
RightLeg -4.058364 -0.000000 0.000000
RightFoot -20.029196 -22.432537 16.128717
RightToeBase 25.423965 -0.000000 -0.000000
851
root 18.732219 35.469761 -21.306746 -171.315682 -3.426421 -178.930357
Spine -18.170422 -0.459337 1.160012
Head 7.872130 -2.046626 0.635727
LeftShoulder -11.838269 -36.105546 22.803453
LeftArm 4.579794 7.796082 -6.046634
LeftForeArm 16.262783 -0.000000 -2.069463
LeftHand -8.129141 -0.000000 -8.254254
LeftHandThumb1 -26.253704 0.000000 33.147579
RightShoulder -11.481141 -0.635123 -13.460547
RightArm 8.976088 33.996038 7.556894
RightForeArm -40.471421 -0.000000 4.706950
RightHand -7.432390 -0.000000 12.630824
RightHandThumb1 -24.326973 -0.000000 -32.862282
LeftUpLeg -0.295415 8.561385 1.890648
LeftLeg -7.090799 -0.000000 0.000000
LeftFoot -19.665192 27.000403 -11.935657
LeftToeBase 27.351435 -0.000000 -0.000000
RightUpLeg -1.510369 -12.973759 -0.161475
RightLeg -4.051965 -0.000000 0.000000
RightFoot -20.030907 -22.426692 16.104308
RightToeBase 25.437042 -0.000000 -0.000000
852
root 18.733993 35.469901 -21.304724 -171.320928 -3.414326 -178.924410
Spine -18.156745 -0.448239 1.164677
Head 7.831017 -1.957458 0.658176
LeftShoulder -11.809210 -36.086538 22.754255
LeftArm 4.552666 7.758333 -5.992209
LeftForeArm 16.499868 0.000000 -2.079326
LeftHand -8.052471 -0.000000 -8.522010
LeftHandThumb1 -26.253704 0.000000 33.147579
RightShoulder -11.474176 -0.657756 -13.460852
RightArm 8.960593 33.988410 7.567429
RightForeArm -40.459537 -0.000000 4.695302
RightHand -7.579180 -0.000000 12.662646
RightHandThumb1 -24.326973 -0.000000 -32.862282
LeftUpLeg -0.289740 8.555811 1.898452
LeftLeg -7.095167 -0.000000 0.000000
LeftFoot -19.657929 27.021174 -11.939289
LeftToeBase 27.322596 -0.000000 -0.000000
RightUpLeg -1.508957 -12.963575 -0.156191
RightLeg -4.053635 -0.000000 0.000000
RightFoot -20.026732 -22.420266 16.111427
RightToeBase 25.462260 -0.000000 -0.000000
853
root 18.735285 35.470016 -21.302762 -171.320781 -3.402007 -178.922505
Spine -18.148447 -0.442688 1.163129
Head 7.790222 -1.868438 0.687264
LeftShoulder -11.818852 -36.063461 22.766065
LeftArm 4.534711 7.786665 -6.047289
LeftForeArm 16.304099 0.000000 -2.080522
LeftHand -8.188236 -0.000000 -8.287093
LeftHandThumb1 -26.253704 0.000000 33.147579
RightShoulder -11.471008 -0.671250 -13.448917
RightArm 8.946206 33.982071 7.566000
RightForeArm -40.419234 0.000000 4.693708
RightHand -7.581697 -0.000000 12.603449
RightHandThumb1 -24.326973 -0.000000 -32.862282
LeftUpLeg -0.289696 8.558286 1.901538
LeftLeg -7.097703 -0.000000 0.000000
LeftFoot -19.656218 27.023780 -11.941078
LeftToeBase 27.372279 -0.000000 -0.000000
RightUpLeg -1.514485 -12.955595 -0.155383
RightLeg -4.051903 -0.000000 0.000000
RightFoot -20.022532 -22.406135 16.099233
RightToeBase 25.472456 -0.000000 -0.000000
854
root 18.737246 35.469817 -21.300963 -171.321268 -3.391815 -178.912290
Spine -18.140610 -0.434211 1.169192
Head 7.740976 -1.786478 0.723571
LeftShoulder -11.805741 -36.056203 22.761362
LeftArm 4.492945 7.790997 -6.058870
LeftForeArm 16.317494 -0.000000 -2.068326
LeftHand -8.202711 -0.000000 -8.253378
LeftHandThumb1 -26.253704 0.000000 33.147579
RightShoulder -11.473197 -0.702608 -13.438494
RightArm 8.937352 34.011122 7.569545
RightForeArm -40.426529 -0.000000 4.696517
RightHand -7.547062 -0.000000 12.578540
RightHandThumb1 -24.326973 -0.000000 -32.862282
LeftUpLeg -0.292940 8.577460 1.914851
LeftLeg -7.096603 -0.000000 0.000000
LeftFoot -19.673018 27.049540 -11.833926
LeftToeBase 27.582491 -0.000000 -0.000000
RightUpLeg -1.518225 -12.949764 -0.142541
RightLeg -4.054340 -0.000000 0.000000
RightFoot -20.019904 -22.398464 16.117565
RightToeBase 25.516155 -0.000000 -0.000000
855
root 18.738411 35.469678 -21.299551 -171.321806 -3.379638 -178.912200
Spine -18.135119 -0.431002 1.167669
Head 7.709025 -1.698776 0.745187
LeftShoulder -11.793268 -36.038421 22.744834
LeftArm 4.462995 7.797142 -6.051986
LeftForeArm 16.353864 0.000000 -2.067837
LeftHand -8.174655 -0.000000 -8.238887
LeftHandThumb1 -26.253704 0.000000 33.147579
RightShoulder -11.452295 -0.723567 -13.431897
RightArm 8.894052 34.013918 7.559371
RightForeArm -40.451096 -0.000000 4.700111
RightHand -7.555884 -0.000000 12.552649
RightHandThumb1 -24.326973 -0.000000 -32.862282
LeftUpLeg -0.292047 8.572995 1.913699
LeftLeg -7.096924 -0.000000 0.000000
LeftFoot -19.660976 27.038762 -11.926757
LeftToeBase 27.330806 -0.000000 -0.000000
RightUpLeg -1.519238 -12.950008 -0.140999
RightLeg -4.058171 -0.000000 0.000000
RightFoot -20.009611 -22.382750 16.094553
RightToeBase 25.501498 -0.000000 -0.000000
